<?xml version="1.0" encoding="iso-8859-1"?>
<!-- Generator: Adobe Illustrator 18.1.1, SVG Export Plug-In . SVG Version: 6.00 Build 0)  -->
<svg xmlns="http://www.w3.org/2000/svg" xmlns:xlink="http://www.w3.org/1999/xlink" version="1.1" id="Capa_1" x="0px" y="0px" viewBox="0 0 37.054 37.054" style="enable-background:new 0 0 37.054 37.054;" xml:space="preserve" width="512px" height="512px">
<g>
	<g>
		<path d="M21.397,8.147c-0.219-1.021-1.118-1.785-2.198-1.785s-1.981,0.766-2.196,1.785c-2.767,0.618-5.081,2.391-6.476,4.778    h17.377C26.509,10.533,24.169,8.767,21.397,8.147z" fill="#3c3695"/>
		<path d="M36.481,15.737c-0.482-1.198-1.272-1.971-2.351-2.304c-1.726-0.527-3.785,0.24-5.087,0.891    c-0.12-0.102-0.241-0.204-0.365-0.303H9.723c-2.268,1.782-3.7,4.201-3.852,6.877c-0.077-0.246-0.145-0.505-0.202-0.771    c-0.084-0.423-0.153-0.856-0.189-1.297l-0.033-0.372l-0.044-0.373c-0.046-0.342-0.105-0.631-0.202-0.931    c-0.179-0.592-0.51-1.187-0.96-1.633c-0.454-0.448-0.976-0.765-1.459-0.858C0.436,14.218,0,16.266,0,16.266    s2.868-0.502,2.765,1.487c0.019,0.145,0.016,0.322,0.009,0.448c-0.011,0.227-0.022,0.457-0.035,0.687    c-0.028,0.523-0.019,1.065,0.015,1.613c0.076,1.098,0.29,2.253,0.78,3.33c0.478,1.073,1.278,2.04,2.157,2.633    c0.875,0.606,1.743,0.867,2.357,0.982c0.164,0.028,0.307,0.051,0.438,0.065c1.343,1.444,3.049,2.567,4.772,3.181h11.851    c2.219-0.857,4.103-2.166,5.413-3.795C35.662,23.026,38.295,20.262,36.481,15.737z M31.968,24.438    c0.387-0.972,0.593-2.005,0.593-3.071c0-2.359-1.005-4.535-2.701-6.276c1.14-0.527,2.715-1.044,3.967-0.658    c0.773,0.239,1.327,0.793,1.688,1.694C36.798,19.328,35.662,21.393,31.968,24.438z" fill="#3c3695"/>
	</g>
</g>
</svg>
