<svg xmlns="http://www.w3.org/2001/svg" hidden="true">
    <symbol id="smartphone" viewBox="0 0 35 35">
        <path d="M25.302,0H9.698c-1.3,0-2.364,1.063-2.364,2.364v30.271C7.334,33.936,8.398,35,9.698,35h15.604   c1.3,0,2.364-1.062,2.364-2.364V2.364C27.666,1.063,26.602,0,25.302,0z M15.004,1.704h4.992c0.158,0,0.286,0.128,0.286,0.287   c0,0.158-0.128,0.286-0.286,0.286h-4.992c-0.158,0-0.286-0.128-0.286-0.286C14.718,1.832,14.846,1.704,15.004,1.704z M17.5,33.818   c-0.653,0-1.182-0.529-1.182-1.183s0.529-1.182,1.182-1.182s1.182,0.528,1.182,1.182S18.153,33.818,17.5,33.818z M26.021,30.625   H8.979V3.749h17.042V30.625z"/>
    </symbol>
    <symbol id="menu" viewBox="0 0 459 459">
        <path d="M0,382.5h459v-51H0V382.5z M0,255h459v-51H0V255z M0,76.5v51h459v-51H0z"/>
    </symbol>
    <symbol id="search" viewBox="0 0 52.966 52.966">
        <path d="M51.704,51.273L36.845,35.82c3.79-3.801,6.138-9.041,6.138-14.82c0-11.58-9.42-21-21-21s-21,9.42-21,21s9.42,21,21,21  c5.083,0,9.748-1.817,13.384-4.832l14.895,15.491c0.196,0.205,0.458,0.307,0.721,0.307c0.25,0,0.499-0.093,0.693-0.279  C52.074,52.304,52.086,51.671,51.704,51.273z M21.983,40c-10.477,0-19-8.523-19-19s8.523-19,19-19s19,8.523,19,19  S32.459,40,21.983,40z"/>
    </symbol>
    <symbol id="cart" viewBox="0 0 512 512">
		<path d="M509.867,89.6c-2.133-2.133-4.267-4.267-8.533-4.267H96L85.333,29.867c0-4.267-6.4-8.533-10.667-8.533h-64
			C4.267,21.333,0,25.6,0,32c0,6.4,4.267,10.667,10.667,10.667h55.467l51.2,260.267c6.4,34.133,38.4,59.733,72.533,59.733H435.2
			c6.4,0,10.667-4.267,10.667-10.667c0-6.4-4.267-10.667-10.667-10.667H192c-17.067,0-34.133-8.533-42.667-23.467L460.8,275.2
			c4.267,0,8.533-4.267,8.533-8.533L512,96C512,96,512,91.733,509.867,89.6z M450.133,256l-311.467,40.533l-38.4-192H486.4
			L450.133,256z"/>
		<path d="M181.333,384C151.467,384,128,407.467,128,437.333c0,29.867,23.467,53.333,53.333,53.333
			c29.867,0,53.333-23.467,53.333-53.333C234.667,407.467,211.2,384,181.333,384z M181.333,469.333c-17.067,0-32-14.934-32-32
			s14.933-32,32-32c17.067,0,32,14.934,32,32S198.4,469.333,181.333,469.333z"/>
		<path d="M394.667,384c-29.867,0-53.333,23.467-53.333,53.333c0,29.867,23.467,53.333,53.333,53.333
			c29.867,0,53.333-23.467,53.333-53.333C448,407.467,424.533,384,394.667,384z M394.667,469.333c-17.067,0-32-14.934-32-32
			s14.933-32,32-32c17.067,0,32,14.934,32,32S411.733,469.333,394.667,469.333z"/>
	</symbol>
</svg>