<svg xmlns="http://www.w3.org/2000/svg" width="2036" height="1034" viewBox="0 0 2036 1034">
  <defs>
    <style>
      .cls-1 {
        fill: #fff;
        fill-rule: evenodd;
      }
    </style>
  </defs>
  <path id="Фигура_2" data-name="Фигура 2" class="cls-1" d="M1226.93,822.514s3.84,28.774-28.14,29.924S1123.32,806.4,1077.27,804.1c-19.69-.984-36.31,5.2-48.92,12.587-12.61-7.388-29.23-13.571-48.923-12.587-46.05,2.3-89.544,49.49-121.523,48.339s-28.142-29.924-28.142-29.924-19.188,36.83,21.746,61C882.917,902.06,980.543,892.8,1028.35,866.7c47.8,26.1,145.43,35.361,176.84,16.814C1246.12,859.344,1226.93,822.514,1226.93,822.514Z"/>
  <path id="Фигура_1" data-name="Фигура 1" class="cls-1" d="M1246.21,242.036c-6.95-62.566-76.18-88.483-129.45-44.3,0,0,16.86-107.725-95.73-107.725s-95.736,107.725-95.736,107.725c-53.267-44.184-122.5-18.267-129.445,44.3-6.913,62.306,42.47,80.876,75.393,83.643l13.189-42.259s24.521-21.689,61.817-25.5,72.062,8.264,72.062,8.264-9.48-3.179-56.258,0-67.638,24.79-67.638,24.79l-9.983,35-32.1,150.855s63.209-23.036,168.7-23.036c101.64,0,168.69,23.036,168.69,23.036l-32.1-150.855C1188.05,327.428,1254.13,313.469,1246.21,242.036Z"/>
  <path id="MasterSheff" class="cls-1" d="M162.545,744.51V586.215l58.678,78.552h19.259l58.678-78.552V744.51h33.1V536.227h-33.1l-67.706,93.727-68.307-93.727h-33.7V744.51h33.1Zm357.729-24.994c-7.222,0-12.338-5.356-12.338-14.58V650.485c0-35.706-27.383-55.939-68.307-55.939-21.365,0-39.119,4.166-53.863,12.5V635.31a88.227,88.227,0,0,1,46.641-13.092c28.888,0,43.331,10.712,43.331,31.837v8.034c-13.541-7.438-29.489-11.307-47.243-11.307-16.55,0-30.693,4.166-42.128,12.795q-17.151,12.5-17.152,35.706c0,15.175,5.116,27.374,15.648,36s23.772,13.092,39.72,13.092c22.87,0,40.924-7.439,54.465-22.614,3.912,13.985,14.444,20.829,30.994,20.829,8.125,0,14.444-1.488,18.958-4.761v-24.4A17.194,17.194,0,0,1,520.274,719.516Zm-44.536-16.365c-9.328,9.819-25.276,17.555-42.127,17.555-18.958,0-31.9-7.736-31.9-23.209,0-14.282,12.939-22.613,34.605-22.613A80.452,80.452,0,0,1,475.738,685.3v17.853Zm138.076,45.227c38.517,0,64.4-17.853,64.4-44.335,0-23.208-16.851-38.681-50.554-46.119L610.5,654.353c-3.911-1.19-10.832-2.976-14.143-4.463-5.416-2.678-9.328-5.951-9.328-11.605,0-9.521,10.231-16.067,30.392-16.067,17.754,0,35.508,5.058,53.262,14.877V607.638c-13.541-8.629-31.9-13.092-54.465-13.092-39.42,0-62.59,16.365-62.59,42.847,0,25.291,15.948,37.193,49.65,45.525l18.356,4.463a113.2,113.2,0,0,1,14.143,4.463c5.416,2.678,9.027,5.951,9.027,11.6,0,10.712-12.036,17.258-32.5,17.258-22.87,0-43.031-5.951-60.183-17.555V733.5C565.067,742.129,588.839,748.378,613.814,748.378Zm116.72-43.74c0,28.565,17.453,43.74,45.137,43.74,14.744,0,25.878-2.38,32.8-7.141V713.565a47.293,47.293,0,0,1-22.268,5.356c-15.647,0-23.17-6.844-23.17-23.507V626.681h46.642V598.414H763.032V555.865h-32.5v42.549h-31.6v28.267h31.6v77.957Zm102.281-33.325c0,22.911,7.824,41.359,23.471,55.641,15.949,14.283,35.207,21.424,58.076,21.424s40.924-4.761,54.465-14.282V707.019a92.163,92.163,0,0,1-47.544,13.092c-30.091,0-51.757-14.58-55.669-39.276H978.758V672.5c0-26.481-9.329-50.583-31.3-66.055-10.833-8.034-23.772-11.9-38.818-11.9-22.568,0-40.623,7.439-54.766,22.018S832.815,649.592,832.815,671.313Zm33.1-14.877c2.107-19.043,17.453-34.813,41.225-34.813,12.037,0,21.365,3.57,28.286,10.711s10.231,15.175,10.532,24.1H865.915ZM1047.93,744.51V654.948c6.92-15.175,25.27-28.564,48.44-28.564a80.928,80.928,0,0,1,9.03.6V594.844a9.341,9.341,0,0,0-3.01-.3c-22.87,0-44.53,12.2-54.46,29.16V598.414h-32.5v146.1h32.5Zm156.44,3.868c23.17,0,42.43-5.653,57.78-16.663s23.17-26.184,23.17-45.524c-1.2-23.507-11.13-38.384-29.79-48.2-13.24-7.141-22.57-10.712-38.52-15.473l-24.07-6.843c-5.12-2.083-14.75-5.058-18.66-7.439-7.22-5.058-12.34-9.819-12.34-18.745,0-15.473,14.15-26.482,43.04-26.482,23.17,0,45.43,6.546,66.8,19.341V549.616c-19.56-11.6-42.13-17.257-67.41-17.257-47.24,0-76.43,22.316-76.43,56.831,0,19.043,6.32,32.433,21.67,41.954a152.459,152.459,0,0,0,21.06,10.414c6.32,2.381,15.65,5.356,27.38,8.629l4.22,1.19c13.54,3.869,19.26,5.356,28.88,9.82a42.882,42.882,0,0,1,10.84,6.248c5.11,4.463,9.33,11.009,9.33,19.341,0,19.34-21.07,30.945-48.75,30.945a123.836,123.836,0,0,1-43.33-8.034c-14.15-5.356-25.58-11.605-34.01-19.043v35.408C1146,740.939,1172.18,748.378,1204.37,748.378ZM1356.89,648.4c8.43-13.39,25.28-23.8,41.83-23.8,9.33,0,17.45,2.678,24.37,8.332s10.23,15.472,10.23,29.457V744.51h32.5V655.246c0-37.789-19.86-60.7-54.76-60.7q-32.5,0-54.17,23.209V536.227h-32.5V744.51h32.5V648.4Zm141.69,22.911c0,22.911,7.83,41.359,23.47,55.641,15.95,14.283,35.21,21.424,58.08,21.424s40.92-4.761,54.46-14.282V707.019a92.144,92.144,0,0,1-47.54,13.092c-30.09,0-51.76-14.58-55.67-39.276h113.15V672.5c0-26.481-9.33-50.583-31.3-66.055-10.83-8.034-23.77-11.9-38.82-11.9-22.57,0-40.62,7.439-54.76,22.018S1498.58,649.592,1498.58,671.313Zm33.1-14.877c2.11-19.043,17.46-34.813,41.23-34.813,12.03,0,21.36,3.57,28.28,10.711s10.23,15.175,10.54,24.1h-80.05Zm193.45-29.755h68.31V744.51h32.5V626.681h48.44V598.414h-48.44v-13.39c0-15.77,7.52-23.8,22.87-23.8,7.52,0,16.24,1.785,25.57,5.356V539.5c-10.23-4.166-21.66-6.249-34.6-6.249-30.09,0-46.34,18.448-46.34,46.12v19.043h-68.31v-13.39c0-15.77,7.52-23.8,22.87-23.8,7.52,0,16.25,1.785,25.58,5.356V539.5c-10.23-4.166-21.67-6.249-34.61-6.249-30.09,0-46.34,18.448-46.34,46.12v19.043h-27.68v28.267h27.68V744.51h32.5V626.681Z"/>
  <path id="магазин_посуды" data-name="магазин             посуды" class="cls-1" d="M150.383,806.81h-19.39v86.442H145.94V829.02l28.843,64.232h10.342L213.4,830.378v62.874H228.35V806.81H209.686l-29.732,66.868ZM321.99,893.252v-1.279q-3.071-7.029-3.07-18.934V833.254q-0.324-13.1-8.887-20.572t-23.673-7.47a42.819,42.819,0,0,0-17.492,3.515,31.686,31.686,0,0,0-12.6,9.547,20.256,20.256,0,0,0-4.646,12.5h15.028q0-5.672,5.413-9.667a21.974,21.974,0,0,1,13.412-3.994q9.129,0,13.816,4.594t4.686,12.343v6.79H289.43q-18.826,0-29.207,7.47t-10.382,20.971a23.276,23.276,0,0,0,8.281,18.335q8.281,7.231,21.209,7.23a33.521,33.521,0,0,0,24.884-10.705q0.807,6.552,2.1,9.108H321.99Zm-52.516-15.18q-4.686-3.913-4.686-10.865,0-15.9,27.47-15.9h11.715v17.736a21.857,21.857,0,0,1-9.13,9.347,26.493,26.493,0,0,1-13.331,3.595Q274.159,881.987,269.474,878.072ZM398.826,806.81H343.481v86.442h15.028V819.033h40.317V806.81ZM481.4,893.252v-1.279q-3.07-7.029-3.07-18.934V833.254q-0.324-13.1-8.887-20.572t-23.673-7.47a42.819,42.819,0,0,0-17.492,3.515,31.686,31.686,0,0,0-12.6,9.547,20.256,20.256,0,0,0-4.646,12.5h15.028q0-5.672,5.413-9.667a21.974,21.974,0,0,1,13.412-3.994q9.129,0,13.816,4.594t4.686,12.343v6.79H448.837q-18.827,0-29.207,7.47t-10.382,20.971a23.276,23.276,0,0,0,8.281,18.335q8.282,7.231,21.209,7.23a33.525,33.525,0,0,0,24.885-10.705q0.806,6.552,2.1,9.108H481.4Zm-52.516-15.18q-4.686-3.913-4.686-10.865,0-15.9,27.47-15.9H463.38v17.736a21.857,21.857,0,0,1-9.13,9.347,26.493,26.493,0,0,1-13.331,3.595Q433.566,881.987,428.881,878.072ZM534.56,842.921H518.32v12.542h14.947q9.291,0,13.695,3.147t4.4,10.4a12.058,12.058,0,0,1-5.252,10.116q-5.252,3.9-13.815,3.9-8.484,0-14.18-4.514t-5.7-10.825H497.556a23.369,23.369,0,0,0,9.817,19.773q9.816,7.309,24.925,7.31,15.512,0,24.8-6.945t9.292-18.839q0-15.006-15.27-20.116a24.183,24.183,0,0,0,10.1-7.756,17.8,17.8,0,0,0,3.555-10.715q0-12.073-8.564-18.59T532.3,805.292q-14.3,0-23.835,7.19t-9.533,18.455H513.8q0-5.513,5.292-9.587a21.009,21.009,0,0,1,13.21-4.074q8.159,0,12.846,3.555a11.452,11.452,0,0,1,4.686,9.627q0,12.063-15.27,12.463h0Zm67.463,27V806.81H587.076v86.442h14.947l40.316-63.034v63.034h14.947V806.81H642.339ZM752.7,806.81H737.757v37.469H697.6V806.81H682.575v86.442H697.6v-36.91h40.154v36.91H752.7V806.81Zm628.016,0h-70.21v86.442h15.03V819.033h40.23v74.219h14.95V806.81Zm20.03,43.46q0,20.133,11.03,32.356t28.81,12.223a39.025,39.025,0,0,0,20.88-5.592,36.839,36.839,0,0,0,13.98-15.619,50.993,50.993,0,0,0,4.89-22.649v-1.038q0-20.292-11.03-32.516t-28.89-12.223a38.606,38.606,0,0,0-20.56,5.513,37.462,37.462,0,0,0-14.06,15.658,50.667,50.667,0,0,0-5.05,22.849v1.038Zm21.82-24.206a21.532,21.532,0,0,1,17.85-8.708,21.781,21.781,0,0,1,18.14,8.827q6.825,8.829,6.83,23.049,0,15.9-6.71,24.726a23.015,23.015,0,0,1-36.15.12q-6.75-8.707-6.75-23.089Q1415.78,834.773,1422.57,826.064Zm93.8,48.653q-6.225-8.068-6.22-23.009v-2.8q0-15.339,6.26-23.448t17.66-8.108a20.186,20.186,0,0,1,20.68,19.173h14.14q-0.645-13.9-10.38-22.609-9.75-8.706-24.44-8.708-11.97,0-20.73,5.433a35.414,35.414,0,0,0-13.45,15.259,51.461,51.461,0,0,0-4.69,22.449v2.477q0,20.452,10.55,32.236t28.4,11.783a37.03,37.03,0,0,0,16.84-3.994,33.961,33.961,0,0,0,12.73-10.705,26.687,26.687,0,0,0,5.17-14.141h-14.14a16.805,16.805,0,0,1-6.63,11.984,21.66,21.66,0,0,1-13.97,4.793Q1522.585,882.786,1516.37,874.717Zm76.11-67.907h-16.32l31.19,85.483-3.32,8.788q-2.745,8.068-6.99,11.105-4.23,3.034-11.83,3.036l-4.04-.32v11.984l5.57,1.038,2.83,0.24q17.775,0,25.94-21.571l35.14-99.783h-16L1614.29,871.6Zm59.46,74.378-0.08,37.469h14.95V893.252h61v25.405h14.95V881.188h-11.23V806.81h-56.32l-1.37,34.513q-1.215,22.37-9.94,33.554l-5.17,6.311h-6.79Zm36.85-40.105,0.89-20.612h26.9v60.717h-40.16q10.995-14.3,12.37-40.105h0Zm86.85-34.273h-14.95v86.442h37.01q15.03,0,23.91-7.83,8.9-7.829,8.89-20.771,0-12.862-8.65-20.372t-23.51-7.67h-22.7v-29.8Zm86.05,0h-15.03v86.442h15.03V806.81Zm-63.27,41.863q8.085,0.16,12.57,4.753a16.161,16.161,0,0,1,4.48,11.784q0,7.429-4.6,11.7t-13.01,4.274h-22.22V848.673h22.78Z"/>
</svg>